# xmcd
#
# Track frame offsets:
#	150
#	13003
#	27413
#	40018
#	53080
#	67625
#	81028
#	95500
#	109950
#	122950
#	137043
#	154505
#	170868
#	185158
#
# Disc length: 2659 seconds
#
# Revision: 1
# Processed by: cddbd v1.5.1PL0 Copyright (c) Steve Scherf et al.
# Submitted via: CDex 1.50Beta5
#
DISCID=b90a610e
DTITLE=リチャード・クレイダーマン - アンティーク・ピアノの贈り物
DYEAR=1900
DGENRE=
TTITLE0=大きな古時計
TTITLE1=PRIDE
TTITLE2=恋におちて
TTITLE3=Best Frind
TTITLE4=夜空ノムコウ
TTITLE5=桜坂
TTITLE6=少年時代
TTITLE7=Everything
TTITLE8=TSUNAMI
TTITLE9=・イブ
TTITLE10=卒業写真
TTITLE11=地上の星
TTITLE12=I LOVE YOU
TTITLE13=森ヶ崎海岸
EXTD=
EXTT0=
EXTT1=
EXTT2=
EXTT3=
EXTT4=
EXTT5=
EXTT6=
EXTT7=
EXTT8=
EXTT9=
EXTT10=
EXTT11=
EXTT12=
EXTT13=
PLAYORDER=
